<svg id="f8d7d8f4-b875-4767-a598-99b9608f6632" data-name="Layer 1" xmlns="http://www.w3.org/2000/svg" width="840.47744" height="701.95039" viewBox="0 0 840.47744 701.95039"><title>dream_world</title><path d="M819.41239,697.40091H387.645C273.21284,672.05938,179.76128,584.7747,179.76128,454.24712a271.80843,271.80843,0,0,1,6.36661-58.71408l348.02352-56.05926L802.63,296.2309a480.15591,480.15591,0,0,1,54.91915,41.8614L600.56366,436.1211,479.33218,482.36834l136.14515-33.83866L898.054,378.29751a481.98867,481.98867,0,0,1,46.655,61.39385L859.25524,503.582,955.80269,457.884q.61282,1.05685,1.22041,2.1171C1017.59881,565.70659,941.24449,697.40091,819.41239,697.40091Z" transform="translate(-179.76128 -99.02481)" fill="#f2f2f2"/><path d="M750.41568,266.56179c-65.3553,13.49881-145.70746,30.5596-228.32333,48.2945-119.45054,25.64945-243.62811,52.722-334.03367,72.51254q2.996-11.722,6.97412-22.9613A479.13119,479.13119,0,0,1,458.6678,225.0333h.00833a483.29525,483.29525,0,0,1,81.40912-6.87426A478.25725,478.25725,0,0,1,750.41568,266.56179Z" transform="translate(-179.76128 -99.02481)" fill="#f2f2f2"/><circle cx="115.50948" cy="120.582" r="69.89029" fill="#ff6584"/><path d="M818.59231,697.40091c-43.00989,41.20391-187.11947,42.95158-416.94086,2.7713q-7.05313-1.23585-14.00646-2.7713C273.21284,672.05938,179.76128,584.7747,179.76128,454.24712a271.80843,271.80843,0,0,1,6.36661-58.71408q.89877-4.107,1.93079-8.16421,2.996-11.722,6.97412-22.9613C227.40666,273.01993,307.709,208.322,401.65145,208.322c23.33587,0,41.73655,6.18355,57.01635,16.71127h.00833c27.85489,19.19131,45.3318,52.83024,63.41622,89.823,3.95312,8.081,7.93117,16.32843,12.05906,24.61749,17.0192,34.17985,36.4685,69.1004,66.41225,96.64732a188.83675,188.83675,0,0,0,14.91367,12.40858q3.91976,2.94617,8.06435,5.71744C802.31382,573.86412,862.0432,655.76423,818.59231,697.40091Z" transform="translate(-179.76128 -99.02481)" fill="#3f3d56"/><ellipse cx="494.69965" cy="557.87889" rx="74.48493" ry="12.57379" opacity="0.1"/><ellipse cx="94.39519" cy="418.06361" rx="74.48493" ry="12.57379" opacity="0.1"/><path d="M284.08334,478.74628c-12.30172,16.08851-10.895,37.83171-10.895,37.83171s21.35175-4.34145,33.65348-20.43,10.895-37.83171,10.895-37.83171S296.38507,462.65776,284.08334,478.74628Z" transform="translate(-179.76128 -99.02481)" fill="#d0cde1"/><path d="M292.145,482.35954c-2.38723,20.11154-18.54713,34.7267-18.54713,34.7267s-12.28944-17.99208-9.90221-38.10362,18.54713-34.7267,18.54713-34.7267S294.53221,462.248,292.145,482.35954Z" transform="translate(-179.76128 -99.02481)" fill="#6c63ff"/><ellipse cx="303.28587" cy="500.25176" rx="63.69597" ry="10.7525" opacity="0.1"/><path d="M491.53614,566.48819c-10.51985,13.75814-9.31689,32.35188-9.31689,32.35188s18.259-3.71259,28.77885-17.47072,9.3169-32.35188,9.3169-32.35188S502.056,552.73006,491.53614,566.48819Z" transform="translate(-179.76128 -99.02481)" fill="#d0cde1"/><path d="M498.43007,569.57809c-2.04144,17.19843-15.86062,29.69662-15.86062,29.69662s-10.50935-15.386-8.4679-32.58441,15.86062-29.69661,15.86062-29.69661S500.47152,552.37966,498.43007,569.57809Z" transform="translate(-179.76128 -99.02481)" fill="#6c63ff"/><path d="M771.39419,562.71718c.0339,69.81127-41.45643,94.20367-92.64719,94.22853q-1.78362.00087-3.55-.0381-3.55873-.075-7.04337-.32087c-46.203-3.24881-82.11381-28.8552-82.14534-93.77952-.03263-67.18863,85.79793-152.02109,92.235-158.29365.00562,0,.00562,0,.01132-.0057.24454-.23905.3697-.35856.3697-.35856S771.36029,492.91157,771.39419,562.71718Z" transform="translate(-179.76128 -99.02481)" fill="#6c63ff"/><path d="M675.36813,646.26884l33.87849-47.38415L675.2853,651.46876l-.08833,5.43885q-3.55873-.075-7.04337-.32087l3.61853-69.84152-.02867-.54042.06245-.10247.3439-6.59954L638.052,526.82094l34.19775,47.738.086,1.39949,2.73359-52.768L645.8748,468.74819l29.5485,45.16874,2.81991-109.40336.01114-.36408.00018.35838-.4359,86.27588,29.015-34.21714L677.697,498.21381l-.74507,47.24858,27.098-45.3555-27.2027,52.302-.41392,26.27259,39.3267-63.1343-39.47587,72.29956Z" transform="translate(-179.76128 -99.02481)" fill="#3f3d56"/><ellipse cx="196.29852" cy="329.86658" rx="97.20935" ry="16.40989" opacity="0.1"/><path d="M502.56618,305.96975c.04425,91.10982-54.10426,122.944-120.91269,122.97648q-2.32778.00113-4.6331-.04973-4.64445-.09795-9.19221-.41876c-60.29893-4.24-107.1657-37.65856-107.20685-122.39049-.04259-87.687,111.9738-198.40081,120.37467-206.587.00734,0,.00734,0,.01477-.00744.31916-.312.4825-.468.4825-.468S502.52194,214.86732,502.56618,305.96975Z" transform="translate(-179.76128 -99.02481)" fill="#6c63ff"/><path d="M377.24377,415.012l44.2144-61.84046-44.32249,68.6268-.11529,7.09818q-4.64445-.09795-9.19221-.41876l4.72249-91.14929-.03741-.7053.08151-.13373.44881-8.613L328.543,259.122,373.174,321.42421l.11228,1.82647,3.56757-68.86686L338.7524,183.332l38.56338,58.94916L380.996,99.5002l.01455-.47516.00022.46772-.56888,112.59757L418.309,167.434l-38.02577,54.35324-.97238,61.66352,35.36527-59.19289-35.5019,68.25867-.54021,34.288,51.32479-82.39579L378.43929,338.766Z" transform="translate(-179.76128 -99.02481)" fill="#3f3d56"/><circle cx="711.27078" cy="214.36938" r="66.94428" fill="#2f2e41"/><path d="M1014.55049,696.01523c-20.06006,56.34-57.88007,104.96-57.88007,104.96h-92.61l12.42-25.49,6.22-12.76,8.99-18.44995,4.42-9.07,11.94-24.52-17.83,23.78-7.7,10.25994-14.6,19.48005-12.18,16.24a836.97811,836.97811,0,0,1-118.62,17.01c-.15-4.7.6-13.94,6.57-26.79a117.01332,117.01332,0,0,1,11.37-19.12,174.53319,174.53319,0,0,1,13.3-16.17c2.64-2.86,5.42-5.78,8.29-8.73,37.36005-38.41,91.27-82.33,91.27-82.33l-15.43-60.97,111.06-18.86a10.01676,10.01676,0,0,1,11.67,9.13c.6,8.05,2.72,18.4,9.24,23.62C996.03047,606.49521,1034.62043,639.68522,1014.55049,696.01523Z" transform="translate(-179.76128 -99.02481)" fill="#2f2e41"/><path d="M941.22041,748.1652a2.07891,2.07891,0,0,1-.09.6c-1.56,5.95-25.65,16.64-64.65,26.72-6.51,1.67005-13.44,3.33-20.74,4.96a836.97811,836.97811,0,0,1-118.62,17.01c-20.22,1.47-41.33,2.31-63.05,2.31-145.31,0-263.52-37.57-267.05-51a2.077,2.077,0,0,1-.09-.6,1.6379,1.6379,0,0,1,.04-.38.867.867,0,0,1,.06-.23c3.87-11.67,121.94,5.61,267.04,5.61,28.23,0,55.45-.65,80.99-1.62,50.73-1.93,94.9-5.09,127.46-6.82,3.17-.16,6.23-.31994,9.17-.44995,29.87-1.41,47.96-1.17,49.43,3.28a.86662.86662,0,0,1,.06.23A1.6379,1.6379,0,0,1,941.22041,748.1652Z" transform="translate(-179.76128 -99.02481)" fill="#3f3d56"/><path d="M941.22041,748.1652a2.07891,2.07891,0,0,1-.09.6c-1.56,5.95-25.65,16.64-64.65,26.72-6.51,1.67005-13.44,3.33-20.74,4.96a836.97811,836.97811,0,0,1-118.62,17.01c-20.22,1.47-41.33,2.31-63.05,2.31-145.31,0-263.52-37.57-267.05-51a2.077,2.077,0,0,1-.09-.6,1.6379,1.6379,0,0,1,.04-.38.867.867,0,0,1,.06-.23c3.87-11.67,121.94,5.61,267.04,5.61,28.23,0,55.45-.65,80.99-1.62,50.73-1.93,94.9-5.09,127.46-6.82,3.17-.16,6.23-.31994,9.17-.44995,29.87-1.41,47.96-1.17,49.43,3.28a.86662.86662,0,0,1,.06.23A1.6379,1.6379,0,0,1,941.22041,748.1652Z" transform="translate(-179.76128 -99.02481)" opacity="0.1"/><ellipse cx="494.31361" cy="649.14237" rx="267.14705" ry="23.30255" fill="#3f3d56"/><ellipse cx="652.47915" cy="652.37043" rx="45" ry="10" opacity="0.1"/><ellipse cx="652.47915" cy="648.37043" rx="24" ry="4" fill="#6c63ff"/><path d="M852.90975,703.10225s-49.43043,38.44981-31.68008,42.30858,46.30526-38.58772,46.30526-38.58772Z" transform="translate(-179.76128 -99.02481)" fill="#a0616a"/><circle cx="699.34996" cy="238.89975" r="43.99" fill="#a0616a"/><path d="M879.11124,377.284s15.43509,39.35947,3.087,46.30526-18.5221,7.71754-18.5221,7.71754L850.55633,453.6877l-7.71754,23.15263,61.74034,2.31526,43.21825-68.68613S926.96,399.6649,916.15545,353.35964Z" transform="translate(-179.76128 -99.02481)" fill="#a0616a"/><path d="M959.75957,411.62709s-7.85045-5.15758-15.11567-3.35054a56.1703,56.1703,0,0,0-10.35222,3.35054s-40.13123,54.79456-61.74035,56.33806c0,0-28.55491,7.71755-21.60912-3.85877s22.16492-35.94186,22.16492-35.94186-27.5672,6.6152-27.5672,15.87625-5.40228,26.23965-5.40228,26.23965-26.23965,26.23964,0,57.10982,16.20684,58.65332,16.20684,58.65332L972.10764,565.2062Z" transform="translate(-179.76128 -99.02481)" fill="#d0cde1"/><path d="M837.82239,508.86813l-6.94579,106.5021,6.94579,98.78455s28.55491,6.174,35.50069,0S858.65975,548.2276,858.65975,548.2276Z" transform="translate(-179.76128 -99.02481)" fill="#d0cde1"/><circle cx="739.0081" cy="153.49436" r="27.70108" fill="#2f2e41"/><path d="M881.83461,237.51442a27.70394,27.70394,0,0,1,24.81555-27.55131,28.0066,28.0066,0,0,0-2.88553-.14977,27.70108,27.70108,0,0,0,0,55.40216,28.00659,28.00659,0,0,0,2.88553-.14978A27.70392,27.70392,0,0,1,881.83461,237.51442Z" transform="translate(-179.76128 -99.02481)" fill="#2f2e41"/><ellipse cx="883.69297" cy="313.16655" rx="27.70108" ry="46.16847" transform="translate(174.31719 987.76636) rotate(-75.11841)" fill="#2f2e41"/><path d="M874.51887,709.27629s-49.43043,38.4498-31.68008,42.30857,46.30526-38.58771,46.30526-38.58771Z" transform="translate(-179.76128 -99.02481)" fill="#a0616a"/><path d="M940.46571,416.25762s21.60912-18.52211,31.64193,6.94578-5.40228,151.26385-5.40228,151.26385L892.61694,724.18759s-35.5007,1.5435-27.78315-23.92439,59.811-145.47569,62.898-148.5627S940.46571,416.25762,940.46571,416.25762Z" transform="translate(-179.76128 -99.02481)" fill="#d0cde1"/><path d="M842.45867,530.2319s17.03057,36.1137,15.65113,45.76974S842.45867,530.2319,842.45867,530.2319Z" transform="translate(-179.76128 -99.02481)" opacity="0.1"/><ellipse cx="746.42698" cy="236.58448" rx="3.85877" ry="7.71754" fill="#a0616a"/><ellipse cx="375.47915" cy="652.37043" rx="45" ry="10" opacity="0.1"/><circle cx="375.47915" cy="628.37043" r="24" fill="#6c63ff"/><ellipse cx="503.47915" cy="652.37043" rx="45" ry="10" opacity="0.1"/><circle cx="503.47915" cy="628.37043" r="24" fill="#6c63ff"/><rect x="372.23872" y="612.97519" width="6" height="30" fill="#d0cde1"/><rect x="495.23872" y="612.97519" width="6" height="30" fill="#d0cde1"/><rect x="504.23872" y="612.97519" width="6" height="30" fill="#d0cde1"/></svg>