<svg xmlns="http://www.w3.org/2000/svg" width="908.062" height="699.657" viewBox="0 0 908.062 699.657">
  <g id="Group_19" data-name="Group 19" transform="translate(-169.938 -93)">
    <g id="Group_17" data-name="Group 17" transform="translate(97.619 160.674)">
      <path id="Path_125" data-name="Path 125" d="M844.4,334.856c-2.19-17.165,4.67-34.834.592-51.639-3.137-12.981-12.43-23.819-15.484-36.823-4.487-19.273,5.777-39.066,18.876-53.864,9.009-10.2,20.315-19.456,33.793-21.309,8.322-1.184,16.875.645,24.558,4.037a62.311,62.311,0,0,1,33.5,36.8c1.776,5.268,2.8,10.779,4.984,15.887,3.759,8.8,10.655,15.9,14.946,24.464a46.418,46.418,0,0,1,1.557,37.533c-4.966,12.395-15.39,22.765-16.929,36.03-1.119,9.559,2.468,20.03-2.19,28.453-3.516,6.357-10.755,9.565-17.609,11.969-15.928,5.54-38.22,14.537-54.2,5.972C856.817,364.878,846.429,350.7,844.4,334.856Z" transform="translate(15.425 168.14)" fill="#e6e6e6"/>
      <path id="Path_126" data-name="Path 126" d="M931,419.877s17.481-7.052,19.685-11.019,5.289-27.328,5.289-27.328" transform="translate(-26.427 90.318)" fill="none" stroke="#d0cde1" stroke-miterlimit="10" stroke-width="3"/>
      <line id="Line_2" data-name="Line 2" y1="170.4" x2="0.533" transform="translate(904.348 458.826)" fill="none" stroke="#d0cde1" stroke-miterlimit="10" stroke-width="3"/>
      <path id="Path_173" data-name="Path 173" d="M846.958,361.09c-2.54-19.911,5.417-40.406.687-59.9-3.639-15.057-14.419-27.629-17.961-42.713-5.2-22.356,6.7-45.316,21.9-62.481,10.45-11.83,23.564-22.569,39.2-24.718,9.654-1.373,19.575.748,28.487,4.683a72.279,72.279,0,0,1,38.862,42.686c2.06,6.111,3.248,12.5,5.781,18.428,4.36,10.21,12.359,18.449,17.337,28.377a53.843,53.843,0,0,1,1.806,43.537c-5.76,14.377-17.852,26.407-19.637,41.793-1.3,11.089,2.863,23.235-2.54,33-4.078,7.374-12.476,11.1-20.426,13.883-18.476,6.427-44.334,16.863-62.872,6.928C861.356,395.914,849.307,379.47,846.958,361.09Z" transform="translate(-74.443 85.754)" fill="#6c63ff"/>
      <line id="Line_3" data-name="Line 3" y1="236.877" transform="translate(824.155 392.349)" fill="none" stroke="#333" stroke-miterlimit="10" stroke-width="3"/>
      <path id="Path_174" data-name="Path 174" d="M931,441.264s27.231-10.986,30.664-17.165S969.9,381.53,969.9,381.53" transform="translate(-106.584 19.731)" fill="none" stroke="#333" stroke-miterlimit="10" stroke-width="3"/>
    </g>
    <g id="Group_18" data-name="Group 18" transform="translate(94.149 -64.901)">
      <path id="Path_102" data-name="Path 102" d="M442.22,351" transform="translate(-13.561 28.063)" fill="none"/>
      <rect id="Rectangle_50" data-name="Rectangle 50" width="386.018" height="696.763" rx="25" transform="translate(352.851 158.843) rotate(-0.14)" fill="#2f2e41"/>
      <path id="Path_122" data-name="Path 122" d="M795.818,756.813a14.349,14.349,0,0,1-14.293,14.394l-329.839.8a14.349,14.349,0,0,1-14.369-14.319l-.226-96.917L435.83,138.2a14.349,14.349,0,0,1,14.293-14.395l68.986-.162a30.619,30.619,0,0,0,30.181,25.992l130.34-.313A30.63,30.63,0,0,0,709.8,123.183l70.064-.173a14.349,14.349,0,0,1,14.368,14.319l1.347,523.442Z" transform="translate(-68.979 58.714)" fill="#fff"/>
      <path id="Path_123" data-name="Path 123" d="M796.987,719.062a14.529,14.529,0,0,1-14.343,14.7l-331,.816a14.525,14.525,0,0,1-14.419-14.62L437,621H796.75Z" transform="translate(-70.149 103.055)" fill="#e6e6e6"/>
      <rect id="Rectangle_51" data-name="Rectangle 51" width="86.022" height="5.38" rx="2" transform="translate(499.666 184.429) rotate(-0.86)" fill="#fff"/>
      <circle id="Ellipse_2" data-name="Ellipse 2" cx="3.231" cy="3.231" r="3.231" transform="translate(600.697 181.821) rotate(-0.86)" fill="#fff"/>
      <g id="Group_11" data-name="Group 11" transform="translate(386.852 271.864)">
        <rect id="Rectangle_52" data-name="Rectangle 52" width="67.941" height="67.941" rx="10.5" transform="translate(0 0)" fill="#e6e6e6"/>
        <rect id="Rectangle_53" data-name="Rectangle 53" width="67.941" height="67.941" rx="10.5" transform="translate(83.865 0)" fill="#e6e6e6"/>
        <rect id="Rectangle_54" data-name="Rectangle 54" width="67.941" height="67.941" rx="10.5" transform="translate(167.73 0)" fill="#e6e6e6"/>
        <rect id="Rectangle_55" data-name="Rectangle 55" width="67.941" height="67.941" rx="10.5" transform="translate(251.595 0)" fill="#e6e6e6"/>
      </g>
      <rect id="Rectangle_56" data-name="Rectangle 56" width="67.917" height="67.917" rx="10.5" transform="translate(386.852 373.708)" fill="#6c63ff"/>
      <rect id="Rectangle_57" data-name="Rectangle 57" width="67.917" height="67.917" rx="10.5" transform="translate(470.686 373.708)" fill="#e6e6e6"/>
      <rect id="Rectangle_58" data-name="Rectangle 58" width="67.917" height="67.917" rx="10.5" transform="translate(554.521 373.708)" fill="#e6e6e6"/>
      <rect id="Rectangle_59" data-name="Rectangle 59" width="67.917" height="67.917" rx="10.5" transform="translate(638.355 373.708)" fill="#e6e6e6"/>
      <g id="Group_12" data-name="Group 12" transform="translate(386.852 475.687)">
        <rect id="Rectangle_60" data-name="Rectangle 60" width="67.941" height="67.941" rx="10.5" fill="#e6e6e6"/>
        <rect id="Rectangle_61" data-name="Rectangle 61" width="67.941" height="67.941" rx="10.5" transform="translate(83.865)" fill="#e6e6e6"/>
        <rect id="Rectangle_62" data-name="Rectangle 62" width="67.941" height="67.941" rx="10.5" transform="translate(167.73)" fill="#e6e6e6"/>
        <rect id="Rectangle_63" data-name="Rectangle 63" width="67.941" height="67.941" rx="10.5" transform="translate(251.595)" fill="#e6e6e6"/>
      </g>
      <g id="Group_13" data-name="Group 13" transform="translate(386.852 577.599)">
        <rect id="Rectangle_64" data-name="Rectangle 64" width="67.941" height="67.941" rx="10.5" transform="translate(0 0)" fill="#e6e6e6"/>
        <rect id="Rectangle_65" data-name="Rectangle 65" width="67.941" height="67.941" rx="10.5" transform="translate(83.865 0)" fill="#e6e6e6"/>
        <rect id="Rectangle_66" data-name="Rectangle 66" width="67.941" height="67.941" rx="10.5" transform="translate(167.73 0)" fill="#e6e6e6"/>
        <rect id="Rectangle_67" data-name="Rectangle 67" width="67.941" height="67.941" rx="10.5" transform="translate(251.595 0)" fill="#e6e6e6"/>
      </g>
      <g id="Group_15" data-name="Group 15" transform="translate(381.787 746.106)">
        <rect id="Rectangle_72" data-name="Rectangle 72" width="70.564" height="70.564" rx="10.5" transform="translate(0 0)" fill="#6c63ff"/>
        <rect id="Rectangle_73" data-name="Rectangle 73" width="70.564" height="70.564" rx="10.5" transform="translate(87.102 0)" fill="#6c63ff"/>
        <rect id="Rectangle_74" data-name="Rectangle 74" width="70.564" height="70.564" rx="10.5" transform="translate(174.205 0)" fill="#6c63ff"/>
        <rect id="Rectangle_75" data-name="Rectangle 75" width="70.564" height="70.564" rx="10.5" transform="translate(261.307 0)" fill="#6c63ff"/>
      </g>
    </g>
    <g id="Group_16" data-name="Group 16" transform="translate(-124.287 259.103)">
      <path id="Path_159" data-name="Path 159" d="M481.177,321.568v15.466l-18.427,27,18.427,11.994s8.19-31.554,12.606-35.268c0,0,6.935-4.948,10.709-11.753s1.887-30.32-16.389-9.284V322.2Z" transform="translate(107.537 -249.498)" fill="#fda57d"/>
      <path id="Path_160" data-name="Path 160" d="M334.931,358.353l7.3-14.593a2.7,2.7,0,0,1,2.278-1.5l27.71-1.415a2.7,2.7,0,0,1,2.66,3.673L367.73,363a2.7,2.7,0,0,1-2.76,1.716l-27.851-2.479a2.7,2.7,0,0,1-2.188-3.884Z" transform="translate(110.232 -258.39)" fill="#fda57d"/>
      <path id="Path_161" data-name="Path 161" d="M196.1,253.4l-4.707,13.8,48.335-1.736-18.567-11.14Z" transform="translate(251.113 -159.699)" fill="#edeef9"/>
      <path id="Path_163" data-name="Path 163" d="M317.75,502.32a45.977,45.977,0,0,1-3.262,28.323c-6.8,14.232-6.8,29.106,1.857,46.408l2.479,89.725s3.091,42.083,0,50.744,1.214,50.132,1.214,50.132h34.656V739.8l11.753-82.3V615.41l21.076,43.939L363.435,760.838l31.554,13,39.6-113.863s-6.865-89.725-31.615-120.658l-4.657-33.732Z" transform="translate(110.141 -257.802)" fill="#3f3d56"/>
      <path id="Path_164" data-name="Path 164" d="M319.4,789.583V766.69h35.268s2.479,9.284,18.567,11.14-7.427,13-7.427,13Z" transform="translate(110.177 -258.84)" fill="#3f3d56"/>
      <path id="Path_165" data-name="Path 165" d="M357.36,775.38,363.5,753.3l30.537,9.7s3.336,9.373,18.34,15.475c10.218,4.156-.913,8.935-.913,8.935l-4.017,1.037Z" transform="translate(111.315 -254.889)" fill="#3f3d56"/>
      <path id="Path_166" data-name="Path 166" d="M398.292,507.432,317.71,504.17a45.083,45.083,0,0,1,.612,14.613c3.683,8.671,11.592,6.3,11.592,6.3l70.506-2.168Z" transform="translate(110.17 -257.796)" opacity="0.1"/>
      <path id="Path_167" data-name="Path 167" d="M334,360.68l-3.212,2.178a60.459,60.459,0,0,0-25.563,60.961h0s17.945,35.127,12.375,70.255,12.375,29.708,12.375,29.708L400.83,521.6l5.259-106.536s42.695,6.072,61.884-8.782L483.44,382.65l-23.515-16.229L451.9,377.9s-25.2-5.319-39.042-10.94a59.124,59.124,0,0,0-20.294-4.346Z" transform="translate(110.121 -258.318)" fill="#6c63ff"/>
      <path id="Path_168" data-name="Path 168" d="M334.511,531.47s-4.336,21.659,20.424,57.549" transform="translate(110.23 -257.696)" opacity="0.1"/>
      <path id="Path_169" data-name="Path 169" d="M406,414.976s29.7-9.9,42.695-9.9,10.829,5.61,10.829,5.61S438.829,419.924,406,414.976Z" transform="translate(110.492 -258.156)" opacity="0.1"/>
      <path id="Path_170" data-name="Path 170" d="M372.516,342.1l-11.823,1.415c-.371,0-.713.512-.913,1.244,2.6,4.687,5.851,7.477,9.384,7.477a7.3,7.3,0,0,0,3.583-1l.9-5.47C373.951,343.947,373.349,342,372.516,342.1Z" transform="translate(110.324 -258.386)" opacity="0.1"/>
      <circle id="Ellipse_3" data-name="Ellipse 3" cx="36.091" cy="36.091" r="36.091" transform="translate(438.499 20.425)" fill="#fda57d"/>
      <path id="Path_171" data-name="Path 171" d="M395.1,294.729h0l-1.847,1.666a6.243,6.243,0,0,0,1.817,10.368h0s-16.169,16.169-18.417,19.17.371,10.9.371,10.9,7.146,13.158-30.45,10.147c0,0-24.81-5.259-22.18-38.72.261-3.352-5.259-12.044,11.281-16.54h0a22.763,22.763,0,0,1,17.433-19.772,63.1,63.1,0,0,1,19.571-1.716A24.569,24.569,0,0,1,395.1,294.729Z" transform="translate(110.192 -258.648)" opacity="0.1"/>
      <path id="Path_172" data-name="Path 172" d="M395.884,292.764h0s3.834,1.184,4.015,13.76l-5.45-.371s-12.606,33.722-11.281,29.326c4.888-16.169-4.888-13.158-7.146-10.147s.371,10.9.371,10.9,7.146,13.158-30.45,10.147c0,0-24.81-5.259-22.18-38.72.261-3.352-5.259-12.044,11.281-16.54h0a22.763,22.763,0,0,1,17.4-19.782,63.1,63.1,0,0,1,19.571-1.716C384.744,270.694,395.884,280.038,395.884,292.764Z" transform="translate(110.19 -258.65)" fill="#72351c"/>
    </g>
    <path id="Path_142" data-name="Path 142" d="M987.06,737.56s-15.76-53.5,3-92.88a84.511,84.511,0,0,0,6.83-53,142.133,142.133,0,0,0-7.51-24.88" transform="translate(-779.879 52.35)" fill="none" stroke="#d0cde1" stroke-miterlimit="10" stroke-width="2"/>
    <path id="Path_143" data-name="Path 143" d="M1001,541.88c0,6.56-11.87,25.57-11.87,25.57s-11.87-19-11.87-25.57a11.875,11.875,0,0,1,23.75,0Z" transform="translate(-779.879 52.35)" fill="#e6e6e6"/>
    <path id="Path_144" data-name="Path 144" d="M1020.61,578.2c-3.56,5.5-23.86,15-23.86,15s.37-22.41,3.93-27.92a11.873,11.873,0,0,1,19.93,12.91Z" transform="translate(-778.879 52.35)" fill="#e6e6e6"/>
    <path id="Path_145" data-name="Path 145" d="M1019.76,640.27c-5.85,3-28.18.91-28.18.91s11.63-19.16,17.49-22.12a11.871,11.871,0,0,1,10.69,21.2Z" transform="translate(-779.879 52.35)" fill="#e6e6e6"/>
    <path id="Path_146" data-name="Path 146" d="M1008.53,687.09c-5.27,3.9-27.62,5.66-27.62,5.66s8.23-20.85,13.5-24.75a11.872,11.872,0,1,1,14.12,19.09Z" transform="translate(-779.879 52.35)" fill="#e6e6e6"/>
    <path id="Path_147" data-name="Path 147" d="M971.82,594.49c4.7,4.57,26.62,9.3,26.62,9.3s-5.37-21.77-10.07-26.33a11.87,11.87,0,0,0-16.55,17Z" transform="translate(-779.879 52.35)" fill="#e6e6e6"/>
    <path id="Path_148" data-name="Path 148" d="M959.39,649.41c5.85,3,28.18.91,28.18.91s-11.63-19.16-17.49-22.12a11.871,11.871,0,1,0-10.69,21.2Z" transform="translate(-779.879 52.35)" fill="#e6e6e6"/>
    <path id="Path_149" data-name="Path 149" d="M954.63,704.44c5.27,3.9,27.62,5.66,27.62,5.66s-8.23-20.85-13.5-24.75a11.872,11.872,0,1,0-14.12,19.09Z" transform="translate(-779.879 52.35)" fill="#e6e6e6"/>
    <rect id="Rectangle_22" data-name="Rectangle 22" width="907.576" height="1.627" transform="translate(170 790.34)" fill="#2f2e41"/>
  </g>
</svg>
