<svg id="b092779a-c5a4-43c0-bfaf-70dac86c4f75" data-name="Layer 1" xmlns="http://www.w3.org/2000/svg" width="827.7576" height="662.45223" viewBox="0 0 827.7576 662.45223"><title>progress_overview</title><path d="M1013.87834,762.94507c-5.15761,25.4307-275.92458,23.29586-275.51428-.00151C743.52159,737.51437,1014.28857,739.64921,1013.87834,762.94507Z" transform="translate(-186.1212 -118.77389)" fill="#e6e6e6"/><path d="M706.9999,698.11c-1.1561,5.70037-61.84937,5.22184-61.7574-.00034C646.39858,692.4096,707.09185,692.88813,706.9999,698.11Z" transform="translate(-186.1212 -118.77389)" fill="#e6e6e6"/><circle cx="677.54452" cy="189.87917" r="18.90903" fill="#2f2e41"/><path d="M844.783,300.96477l11.83555-2.90077a30.47944,30.47944,0,0,0,29.8681-36.55339v0a39.839,39.839,0,0,0-39.839-39.839h-.00008a39.839,39.839,0,0,0-39.83905,39.839v.00005A31.65877,31.65877,0,0,0,844.783,300.96477Z" transform="translate(-186.1212 -118.77389)" fill="#2f2e41"/><polygon points="734.789 303.376 705.53 261.733 689.646 291.232 707.799 312.41 734.789 303.376" fill="#575a89"/><path d="M905.64376,417.94724s9.07633-3.78181,14.37086,3.02544,14.37086,21.17812,11.34542,23.4472-12.85814-6.80725-12.85814-6.80725Z" transform="translate(-186.1212 -118.77389)" fill="#575a89"/><ellipse cx="922.66189" cy="444.79806" rx="6.80725" ry="12.85814" transform="translate(-262.19502 553.35051) rotate(-38.56071)" fill="#ffb8b8"/><path d="M935.14184,523.08144s-1.51272,48.40711-6.80725,76.39247S931.36,728.05531,931.36,728.05531l-16.63995,7.56361L904.131,724.2735s3.7818-20.42175-1.51272-34.79261-7.56362-76.39248-7.56362-76.39248l-9.07633-83.19972Z" transform="translate(-186.1212 -118.77389)" fill="#ffb8b8"/><path d="M873.12023,537.4523l-47.65075,86.98153-43.11259,79.41792v16.64l-21.93447-6.80725,7.56361-17.39631s3.78181-68.0725,31.01081-94.54514L822.444,534.42686Z" transform="translate(-186.1212 -118.77389)" fill="#ffb8b8"/><path d="M901.48377,420.5945h8.32s45.38166,62.02162,43.11258,99.83967l-65.04706,26.47264-2.26908-5.29452s-53.70164,9.83269-67.31614-1.51273l18.909-96.81422,1.51272-13.6145Z" transform="translate(-186.1212 -118.77389)" fill="#2f2e41"/><path d="M922.28371,727.299s-10.58906-13.6145,2.26908-14.37086,12.85814,7.56361,12.85814,7.56361l28.74172,19.66539s47.65075,17.3963,13.6145,22.69083c0,0-14.37086,3.02545-32.52353-3.78181a107.7077,107.7077,0,0,0-34.03625-6.80725s-16.63994-.75636-16.63994-9.07633S904.685,720.4917,904.685,720.4917,917.74554,729.568,922.28371,727.299Z" transform="translate(-186.1212 -118.77389)" fill="#2f2e41"/><path d="M758.9097,708.38992s25.71628-5.29453,26.47264,4.53817,0,26.47264,0,26.47264-6.05089,7.56361-4.53817,12.85813-3.7818,21.93448-21.93447,19.66539-12.10178-27.98536-12.10178-27.98536l12.10178-29.49808Z" transform="translate(-186.1212 -118.77389)" fill="#2f2e41"/><circle cx="655.23187" cy="146.3884" r="25.3381" fill="#ffb8b8"/><path d="M858.37119,279.155l.37818,43.49077-31.01081-10.58906s3.78181-24.95992,3.02545-27.229Z" transform="translate(-186.1212 -118.77389)" fill="#ffb8b8"/><path d="M864.0439,309.7876s-32.52353-11.34542-36.30534-9.8327-5.29453,9.8327-5.29453,9.8327-18.15266-3.78181-20.42175,8.32,14.37087,65.04706,14.37087,65.04706l16.63994,31.0108s-8.32,12.85814,6.05089,17.39631,66.55978-9.83269,66.55978-9.83269,9.07633-10.58906,0-10.58906c0,0-3.02544-9.8327-6.05089-12.10178s2.26908-6.05089-.75636-6.80725-3.02544-2.26908-3.02544-2.26908,15.12722-20.42175,1.51272-37.0617-15.50541-32.14535-22.31266-34.41443S864.0439,309.7876,864.0439,309.7876Z" transform="translate(-186.1212 -118.77389)" fill="#575a89"/><ellipse cx="847.78213" cy="483.37248" rx="6.80725" ry="12.85814" transform="translate(-105.0728 968.33933) rotate(-67.90768)" fill="#ffb8b8"/><path d="M813.3677,315.83849H802.70442s-30.93658,74.87975-21.86025,98.32694,42.35623,64.2907,42.35623,64.2907,10.58905,18.909,18.15266,18.909,15.88359-27.229,15.88359-27.229L833.03309,459.5471l-28.74172-52.94528,13.6145-40.8435Z" transform="translate(-186.1212 -118.77389)" fill="#575a89"/><polygon points="710.068 270.81 726.708 300.308 723.683 301.821 710.068 270.81" opacity="0.2"/><rect x="873.87641" y="454.75862" width="1.51309" height="88.23853" transform="translate(-282.78364 114.68507) rotate(-14.41613)" opacity="0.2"/><path d="M810.72044,254.95141l4.53816-8.32,6.80725,4.56425h0A7.39238,7.39238,0,0,0,828.2,254.24744l23.76744-.47974a7.83489,7.83489,0,0,0,5.64742-2.572h0a12.386,12.386,0,0,1,7.67982,8.48726l2.90923,11.152V233.01694H822.82221Z" transform="translate(-186.1212 -118.77389)" fill="#2f2e41"/><rect width="426.87352" height="549.96668" fill="#e6e6e6"/><rect x="11.8576" y="70.58094" width="403.15832" height="137.77399" fill="#fff"/><rect x="11.8576" y="232.07013" width="403.15832" height="137.77399" fill="#fff"/><rect x="11.8576" y="393.55932" width="403.15832" height="137.77399" fill="#fff"/><circle cx="404.28762" cy="21.45661" r="11.29295" fill="#fff"/><circle cx="48.84201" cy="300.95712" r="11.29295" fill="#e6e6e6"/><rect x="81.59157" y="291.92276" width="106.15373" height="18.06872" fill="#e6e6e6"/><circle cx="249.5742" cy="301.52177" r="11.29295" fill="#e6e6e6"/><rect x="282.32376" y="292.48741" width="106.15373" height="18.06872" fill="#e6e6e6"/><polygon points="410.168 17.173 408.571 15.576 404.288 19.86 400.004 15.576 398.407 17.173 402.691 21.457 398.407 25.74 400.004 27.337 404.288 23.053 408.571 27.337 410.168 25.74 405.885 21.457 410.168 17.173" fill="#e6e6e6"/><circle cx="48.84201" cy="139.46794" r="11.29295" fill="#e6e6e6"/><rect x="102.48352" y="129.30428" width="286.84094" height="18.06872" fill="#e6e6e6"/><rect x="84.97945" y="129.30428" width="257.47927" height="18.06872" fill="#6c63ff"/><circle cx="48.84201" cy="462.44631" r="11.29295" fill="#e6e6e6"/><rect x="102.48352" y="452.28266" width="286.84094" height="18.06872" fill="#e6e6e6"/><rect x="84.97945" y="452.28266" width="161.20686" height="18.06872" fill="#6c63ff"/><rect x="81.59157" y="291.92276" width="33.59653" height="18.06872" fill="#6c63ff"/><rect x="282.32376" y="292.48741" width="66.62841" height="18.06872" fill="#6c63ff"/><path d="M699.51345,673.87308c.17358,17.79415-10.34428,24.10956-23.39225,24.23685q-.45464.00443-.905-.00133-.90726-.01071-1.796-.06514c-11.78437-.71893-20.99819-7.16091-21.15963-23.70942-.16706-17.12566,21.50989-38.95143,23.13581-40.56546l.00287-.00148c.06177-.06151.09338-.09226.09338-.09226S699.33988,656.08038,699.51345,673.87308Z" transform="translate(-186.1212 -118.77389)" fill="#e6e6e6"/></svg>