<svg id="b326ab2b-d71b-40ff-978b-a3c211b51f5c" data-name="Layer 1" xmlns="http://www.w3.org/2000/svg" width="1026.80044" height="841.93817" viewBox="0 0 1026.80044 841.93817"><title>apps</title><path d="M158.16229,730.54235,157.089,730.14c-.23584-.08887-23.7085-9.082-34.7041-29.47363-10.9961-20.39258-5.61182-44.94531-5.55616-45.19043l.25342-1.11817,1.07276.40235c.23584.08887,23.708,9.082,34.7041,29.47363,10.99609,20.39258,5.61181,44.94531,5.55615,45.19043Zm-34.0166-30.8252c9.29639,17.24121,27.84521,26.0791,32.54492,28.09668.89356-5.03711,3.6958-25.40625-5.59228-42.63086-9.28711-17.22266-27.84327-26.07422-32.54493-28.09668C117.65936,662.12633,114.85809,682.49352,124.14569,699.71715Z" transform="translate(-86.59978 -29.03091)" fill="#3f3d56"/><path d="M130.78814,694.51332c19.76056,11.88861,27.371,35.50267,27.371,35.50267s-24.42779,4.33881-44.18835-7.5498-27.371-35.50267-27.371-35.50267S111.02757,682.62471,130.78814,694.51332Z" transform="translate(-86.59978 -29.03091)" fill="#6c63ff"/><rect x="167.25812" y="28.2298" width="605" height="646.0404" fill="#3f3d56"/><path d="M876.3579,731.53091h-640a9.01015,9.01015,0,0,1-9-9v-684.5a9.01047,9.01047,0,0,1,9-9h640a9.01016,9.01016,0,0,1,9,9v684.5A9.00984,9.00984,0,0,1,876.3579,731.53091Zm-640-700.5a7.00786,7.00786,0,0,0-7,7v684.5a7.00817,7.00817,0,0,0,7,7h640a7.00849,7.00849,0,0,0,7-7v-684.5a7.00818,7.00818,0,0,0-7-7Z" transform="translate(-86.59978 -29.03091)" fill="#3f3d56"/><path d="M776.8579,688.03091h-440a9.01015,9.01015,0,0,1-9-9v-72a9.01015,9.01015,0,0,1,9-9h440a9.00984,9.00984,0,0,1,9,9v72A9.00984,9.00984,0,0,1,776.8579,688.03091Zm-440-88a7.00818,7.00818,0,0,0-7,7v72a7.00817,7.00817,0,0,0,7,7h440a7.00849,7.00849,0,0,0,7-7v-72a7.0085,7.0085,0,0,0-7-7Z" transform="translate(-86.59978 -29.03091)" fill="#fff"/><path d="M436.8579,676.03091h-54a6.00655,6.00655,0,0,1-6-6v-54a6.00656,6.00656,0,0,1,6-6h54a6.00657,6.00657,0,0,1,6,6v54A6.00656,6.00656,0,0,1,436.8579,676.03091Zm-54-64a4.00427,4.00427,0,0,0-4,4v54a4.00426,4.00426,0,0,0,4,4h54a4.00427,4.00427,0,0,0,4-4v-54a4.00428,4.00428,0,0,0-4-4Z" transform="translate(-86.59978 -29.03091)" fill="#fff"/><path d="M534.8579,676.03091h-54a6.00655,6.00655,0,0,1-6-6v-54a6.00656,6.00656,0,0,1,6-6h54a6.00657,6.00657,0,0,1,6,6v54A6.00656,6.00656,0,0,1,534.8579,676.03091Zm-54-64a4.00427,4.00427,0,0,0-4,4v54a4.00426,4.00426,0,0,0,4,4h54a4.00427,4.00427,0,0,0,4-4v-54a4.00428,4.00428,0,0,0-4-4Z" transform="translate(-86.59978 -29.03091)" fill="#fff"/><path d="M632.8579,676.03091h-54a6.00655,6.00655,0,0,1-6-6v-54a6.00656,6.00656,0,0,1,6-6h54a6.00657,6.00657,0,0,1,6,6v54A6.00656,6.00656,0,0,1,632.8579,676.03091Zm-54-64a4.00427,4.00427,0,0,0-4,4v54a4.00426,4.00426,0,0,0,4,4h54a4.00427,4.00427,0,0,0,4-4v-54a4.00428,4.00428,0,0,0-4-4Z" transform="translate(-86.59978 -29.03091)" fill="#fff"/><path d="M730.8579,676.03091h-54a6.00655,6.00655,0,0,1-6-6v-54a6.00656,6.00656,0,0,1,6-6h54a6.00657,6.00657,0,0,1,6,6v54A6.00656,6.00656,0,0,1,730.8579,676.03091Zm-54-64a4.00427,4.00427,0,0,0-4,4v54a4.00426,4.00426,0,0,0,4,4h54a4.004,4.004,0,0,0,4-4v-54a4.004,4.004,0,0,0-4-4Z" transform="translate(-86.59978 -29.03091)" fill="#fff"/><rect x="241.75812" y="109" width="64" height="64" rx="5" fill="#fff"/><rect x="339.75812" y="109" width="64" height="64" rx="5" fill="#fff"/><rect x="437.75812" y="109" width="64" height="64" rx="5" fill="#fff"/><rect x="535.75812" y="109" width="64" height="64" rx="5" fill="#fff"/><rect x="633.75812" y="109" width="64" height="64" rx="5" fill="#fff"/><rect x="242.25812" y="241" width="64" height="64" rx="5" fill="#fff"/><rect x="340.25812" y="241" width="64" height="64" rx="5" fill="#fff"/><rect x="438.25812" y="241" width="64" height="64" rx="5" fill="#fff"/><rect x="536.25812" y="241" width="64" height="64" rx="5" fill="#fff"/><rect x="634.25812" y="241" width="64" height="64" rx="5" fill="#fff"/><rect x="242.75812" y="373" width="64" height="64" rx="5" fill="#fff"/><rect x="340.75812" y="373" width="64" height="64" rx="5" fill="#fff"/><rect x="438.75812" y="373" width="64" height="64" rx="5" fill="#fff"/><rect x="536.75812" y="373" width="64" height="64" rx="5" fill="#fff"/><rect x="634.75812" y="373" width="64" height="64" rx="5" fill="#fff"/><rect x="185.25812" y="41" width="62" height="5" fill="#fff"/><rect x="614.25812" y="41" width="62" height="5" fill="#fff"/><rect x="690.25812" y="41" width="62" height="5" fill="#fff"/><circle cx="440.78873" cy="542" r="8.53061" fill="#fff"/><circle cx="470.25812" cy="542" r="8.53061" fill="#fff"/><circle cx="499.7275" cy="542" r="8.53061" fill="#fff"/><rect x="247.25812" y="113" width="64" height="64" rx="5" fill="#6c63ff"/><rect x="345.25812" y="113" width="64" height="64" rx="5" fill="#6c63ff"/><rect x="443.25812" y="113" width="64" height="64" rx="5" fill="#6c63ff"/><rect x="541.25812" y="113" width="64" height="64" rx="5" fill="#6c63ff"/><rect x="639.25812" y="113" width="64" height="64" rx="5" fill="#6c63ff"/><rect x="247.25812" y="245" width="64" height="64" rx="5" fill="#6c63ff"/><rect x="345.25812" y="245" width="64" height="64" rx="5" fill="#6c63ff"/><rect x="443.25812" y="245" width="64" height="64" rx="5" fill="#6c63ff"/><rect x="541.25812" y="245" width="64" height="64" rx="5" fill="#6c63ff"/><rect x="639.25812" y="245" width="64" height="64" rx="5" fill="#6c63ff"/><rect x="247.25812" y="377" width="64" height="64" rx="5" fill="#6c63ff"/><rect x="443.25812" y="377" width="64" height="64" rx="5" fill="#6c63ff"/><rect x="541.25812" y="377" width="64" height="64" rx="5" fill="#6c63ff"/><rect x="639.25812" y="377" width="64" height="64" rx="5" fill="#6c63ff"/><path d="M450.78494,745.72442s18.99179,36.79659,29.67467,45.1055-17.21131,18.3983-17.21131,18.3983l-32.64213-51.04044Z" transform="translate(-86.59978 -29.03091)" fill="#ffb8b8"/><path d="M335.64723,656.10692s88.43051,23.14625,96.14592,38.57707S463.2483,747.5049,463.2483,747.5049l-35.01611,27.89419-34.42261-51.63392-94.95894-42.73152Z" transform="translate(-86.59978 -29.03091)" fill="#2f2e41"/><path d="M460.28084,794.39088s-8.30891-7.12192-10.68288-2.374-9.4959,29.08117-9.4959,29.08117,10.08939,9.4959,30.86166,3.561c0,0,5.34144-4.15445,13.65035,0s39.17056-4.15445,37.98357-17.8048-32.64213-12.46336-32.64213-12.46336-13.24872-14.84313-14.93327-9.202.68943,6.23457.68943,6.23457S465.02878,802.69979,460.28084,794.39088Z" transform="translate(-86.59978 -29.03091)" fill="#2f2e41"/><path d="M358.79347,781.92752,352.85854,831.781h29.08117s-2.374-38.57707-1.78048-43.325S358.79347,781.92752,358.79347,781.92752Z" transform="translate(-86.59978 -29.03091)" fill="#ffb8b8"/><path d="M375.41128,672.13124s16.02433,23.73974,6.52843,25.52022-17.21131-25.52022-17.21131-25.52022Z" transform="translate(-86.59978 -29.03091)" fill="#ffb8b8"/><path d="M254.33863,669.75727s-11.86986,35.01611,35.01611,44.512,61.12982,17.21131,61.12982,17.21131l5.93494,60.53633,40.951,2.374s19.58528-91.99147-5.93493-103.86134-79.52812-25.52022-79.52812-25.52022Z" transform="translate(-86.59978 -29.03091)" fill="#2f2e41"/><path d="M356.4195,824.06555s8.3089-4.15445,9.49589-4.15445c0,0,5.21664-12.03225,14.77493-10.76407L401.525,839.49638s31.45515,22.55275,9.4959,28.48768-39.17057,1.187-39.17057,1.187l-8.9024-6.52843s1.187-6.52843-6.52842-5.34144c0,0-16.02433-6.52843-15.43083-11.27637S354.18841,820.61,354.18841,820.61Z" transform="translate(-86.59978 -29.03091)" fill="#2f2e41"/><circle cx="274.86441" cy="501.55216" r="23.73974" fill="#ffb8b8"/><path d="M342.17565,523.16441s-21.36576,15.43082-25.52021,16.02432,19.58528,29.67467,19.58528,29.67467,11.27637-18.3983,18.3983-20.77227S342.17565,523.16441,342.17565,523.16441Z" transform="translate(-86.59978 -29.03091)" fill="#ffb8b8"/><path d="M346.8579,575.03091h0L367.10238,645.424l14.83733,33.82913s-16.02432-5.51659-17.21131,1.09941l-23.73973-34.335Z" transform="translate(-86.59978 -29.03091)" fill="#d0cde1"/><path d="M346.8579,575.03091h0L367.10238,645.424l14.83733,33.82913s-16.02432-5.51659-17.21131,1.09941l-23.73973-34.335Z" transform="translate(-86.59978 -29.03091)" opacity="0.1"/><path d="M356.1268,511.1138l12.915,1.61329c-.24655,2.62817-.178,5.884,2.15065,7.1272,1.09473.58443,2.48381.55455,3.45411,1.32819,2.33365,1.86067.05094,5.86193,1.36849,8.54l3.77724.99943a7.301,7.301,0,0,0,9.9214,2.97569c2.53815-1.52411,3.83157-4.43606,4.9736-7.16752,1.36444-3.26337,2.7569-6.76947,2.07391-10.24-.73377-3.72863-3.78-6.82731-3.91825-10.62495-.06185-1.69887.29691-3.81688-1.13523-4.73284a6.05467,6.05467,0,0,0-2.09427-.55583c-3.29945-.68905-5.13658-4.10389-7.59715-6.40753-5.15647-4.82762-13.07516-4.70086-20.12625-4.27983a17.87605,17.87605,0,0,0-5.9229,1.03247,17.2568,17.2568,0,0,0-5.5802,4.44971c-3.78142,4.03316-7.463,8.25742-9.95751,13.19127s-3.72344,10.69847-2.36767,16.05827c-.13352-.51575,4.35452-3.89049,4.913-4.4313,1.75409-1.6986,1.91373-2.50975,2.8629-4.46416C348.05035,510.96933,351.12715,510.48927,356.1268,511.1138Z" transform="translate(-86.59978 -29.03091)" fill="#2f2e41"/><path d="M326.15133,542.74969s-8.9024-11.86987-14.24384-11.86987-36.89514,9.387-41.04959,49.15109S252.55815,685.1881,252.55815,685.1881s-3.561-17.21131,36.2031-10.08939c0,0,47.47947-10.08939,55.78838-10.08939s3.30827-85.97841,3.30827-85.97841l-4.95156-19.84242S336.83421,570.64388,326.15133,542.74969Z" transform="translate(-86.59978 -29.03091)" fill="#d0cde1"/><rect x="262.25812" y="595" width="64" height="64" rx="5" fill="#6c63ff"/><polygon points="231.539 558.528 233.32 600.072 259.72 631.031 235.694 596.511 231.539 558.528" opacity="0.1"/><polygon points="184.06 569.804 204.832 617.877 231.539 639.836 203.052 620.251 184.06 569.804" opacity="0.1"/><path d="M358.14542,666.56287s23.54176,16.31379,15.33769,21.41628-25.29356-17.5427-25.29356-17.5427Z" transform="translate(-86.59978 -29.03091)" fill="#ffb8b8"/><path d="M288.16776,545.71715s-17.21533,49.85783-14.5115,56.794c8.50493,21.81761,18.07246,42.31945,18.07246,42.31945l26.82537,24.25468L354.639,679.25317l4.15445-3.561s1.187-11.27637-4.15445-12.46336-13.65035-5.93493-13.65035-5.93493l-21.36576-31.45515S319.02941,547.49763,288.16776,545.71715Z" transform="translate(-86.59978 -29.03091)" fill="#d0cde1"/><path d="M1089.15079,645.55025c.03061,63.0309-37.43,85.05421-83.6489,85.07665q-1.61038.00078-3.20524-.0344-3.21309-.06776-6.35928-.2897c-41.71555-2.93327-74.13857-26.05266-74.167-84.67126-.02946-60.663,77.46487-137.25616,83.2767-142.9195.00508,0,.00508,0,.01022-.00514.22079-.21584.33379-.32374.33379-.32374S1089.12018,582.52445,1089.15079,645.55025Z" transform="translate(-86.59978 -29.03091)" fill="#6c63ff"/><path d="M1002.45119,720.987l30.58807-42.782-30.66285,47.47687-.07976,4.91061q-3.21309-.06776-6.35928-.2897l3.26708-63.05821-.02589-.48794.05639-.09252.31049-5.95856L968.75938,613.1404l30.87632,43.10144.07767,1.26357,2.46809-47.643-26.35908-49.15453,26.67863,40.78176,2.546-98.77764.01006-.32872.00016.32358-.39356,77.89639,26.1969-30.89382-26.3067,37.60225-.67271,42.65959,24.46614-40.95038-24.56065,47.2222-.37373,23.72089,35.50713-57.00243-35.64181,65.27751Z" transform="translate(-86.59978 -29.03091)" fill="#3f3d56"/><rect x="835.25773" y="700.64465" width="158.41249" height="1.8747" fill="#3f3d56"/><rect x="24.20874" y="700.64465" width="77.46148" height="1.8747" fill="#3f3d56"/><path d="M953.59733,380.25573a11.24823,11.24823,0,1,1,11.24823-11.24823A11.26082,11.26082,0,0,1,953.59733,380.25573Zm0-20.62175a9.37352,9.37352,0,1,0,9.37352,9.37352A9.38426,9.38426,0,0,0,953.59733,359.634Z" transform="translate(-86.59978 -29.03091)" fill="#3f3d56"/><path d="M1113.40022,338.022h-24.37115V313.65079h24.37115Zm-22.49645-1.87471h20.62175V315.5255h-20.62175Z" transform="translate(-86.59978 -29.03091)" fill="#3f3d56"/></svg>