<svg id="acf6401d-94a8-428e-9730-6b41bf40021d" data-name="Layer 1" xmlns="http://www.w3.org/2000/svg" width="574.47557" height="695.65493" viewBox="0 0 574.47557 695.65493"><path d="M725.49776,262.43069v78.69138a2.751,2.751,0,0,1-2.74363,2.74366h-1.95276V753.79657A42.77468,42.77468,0,0,1,678.029,796.56886H421.88666a42.76443,42.76443,0,0,1-42.76037-42.76848V358.243h-1.41382a1.938,1.938,0,0,1-1.94092-1.929V311.529a1.94056,1.94056,0,0,1,1.94019-1.941h1.41455V292.7188h-1.42581a2.03254,2.03254,0,0,1-2.02473-2.03679V246.508a2.03,2.03,0,0,1,2.02473-2.0248h1.42581V221.45564h-1.4498a1.79475,1.79475,0,0,1-1.79715-1.79237V195.55266a1.80505,1.80505,0,0,1,1.79715-1.80913h1.4498V144.93282a42.76192,42.76192,0,0,1,42.76037-42.76029H678.02894a42.77217,42.77217,0,0,1,42.77235,42.76029V259.6871h1.95277A2.75091,2.75091,0,0,1,725.49776,262.43069Z" transform="translate(-312.76222 -102.17253)" fill="#3f3d56"/><path d="M207.91448,21.93337h41.62167a3.04544,3.04544,0,0,1,3.04544,3.04544v3.59747a3.04544,3.04544,0,0,1-3.04544,3.04544H207.91446a3.04542,3.04542,0,0,1-3.04542-3.04542v-3.5975A3.04544,3.04544,0,0,1,207.91448,21.93337Z" fill="#e6e8ec"/><circle cx="265.2911" cy="26.77754" r="5.49529" fill="#e6e8ec"/><path d="M700.31962,153.3718V757.34735a27.14092,27.14092,0,0,1-27.137,27.12506H427.99089a27.095,27.095,0,0,1-27.137-27.05318V153.39579a27.13585,27.13585,0,0,1,27.137-27.13706h36.69789v4.70853a22.34485,22.34485,0,0,0,22.34465,22.34465H611.73191a22.34481,22.34481,0,0,0,22.34464-22.34465v-4.70853h39.10609A27.11539,27.11539,0,0,1,700.31962,153.3718Z" transform="translate(-312.76222 -102.17253)" fill="#fff"/><path d="M700.31962,676.28375v81.0636a27.14092,27.14092,0,0,1-27.137,27.12506H427.99089a27.095,27.095,0,0,1-27.137-27.05318V676.28375Z" transform="translate(-312.76222 -102.17253)" fill="#f2f2f2"/><path d="M427.18214,201.83507a3.59824,3.59824,0,0,0-3.59431,3.59431v64.69755a3.59824,3.59824,0,0,0,3.59431,3.5943h64.69755a3.59824,3.59824,0,0,0,3.59431-3.5943V205.42938a3.59824,3.59824,0,0,0-3.59431-3.59431Z" transform="translate(-312.76222 -102.17253)" fill="#e6e6e6"/><path d="M518.238,201.83507a3.59824,3.59824,0,0,0-3.59431,3.59431v64.69755a3.59824,3.59824,0,0,0,3.59431,3.5943h64.69754a3.59824,3.59824,0,0,0,3.59431-3.5943V205.42938a3.59824,3.59824,0,0,0-3.59431-3.59431Z" transform="translate(-312.76222 -102.17253)" fill="#e6e6e6"/><path d="M609.29375,201.83507a3.59824,3.59824,0,0,0-3.5943,3.59431v64.69755a3.59823,3.59823,0,0,0,3.5943,3.5943H673.9913a3.59824,3.59824,0,0,0,3.59431-3.5943V205.42938a3.59824,3.59824,0,0,0-3.59431-3.59431Z" transform="translate(-312.76222 -102.17253)" fill="#e6e6e6"/><path d="M427.332,301.2776a3.59824,3.59824,0,0,0-3.59431,3.5943v64.69755a3.59824,3.59824,0,0,0,3.59431,3.59431H492.0295a3.59824,3.59824,0,0,0,3.5943-3.59431V304.8719a3.59823,3.59823,0,0,0-3.5943-3.5943Z" transform="translate(-312.76222 -102.17253)" fill="#e6e6e6"/><path d="M518.38776,301.2776a3.59824,3.59824,0,0,0-3.59431,3.5943v64.69755a3.59824,3.59824,0,0,0,3.59431,3.59431H583.0853a3.59824,3.59824,0,0,0,3.59431-3.59431V304.8719a3.59824,3.59824,0,0,0-3.59431-3.5943Z" transform="translate(-312.76222 -102.17253)" fill="#e6e6e6"/><path d="M609.44356,301.2776a3.59824,3.59824,0,0,0-3.59431,3.5943v64.69755a3.59824,3.59824,0,0,0,3.59431,3.59431h64.69755a3.59824,3.59824,0,0,0,3.59431-3.59431V304.8719a3.59824,3.59824,0,0,0-3.59431-3.5943Z" transform="translate(-312.76222 -102.17253)" fill="#e6e6e6"/><path d="M427.48176,400.72012a3.59824,3.59824,0,0,0-3.59431,3.59431V469.012a3.59824,3.59824,0,0,0,3.59431,3.59431H492.1793a3.59824,3.59824,0,0,0,3.59431-3.59431V404.31443a3.59824,3.59824,0,0,0-3.59431-3.59431Z" transform="translate(-312.76222 -102.17253)" fill="#e6e6e6"/><path d="M518.53756,400.72012a3.59824,3.59824,0,0,0-3.5943,3.59431V469.012a3.59824,3.59824,0,0,0,3.5943,3.59431h64.69755a3.59824,3.59824,0,0,0,3.59431-3.59431V404.31443a3.59824,3.59824,0,0,0-3.59431-3.59431Z" transform="translate(-312.76222 -102.17253)" fill="#e6e6e6"/><path d="M609.59337,400.72012a3.59824,3.59824,0,0,0-3.59431,3.59431V469.012a3.59824,3.59824,0,0,0,3.59431,3.59431h64.69755a3.59824,3.59824,0,0,0,3.59431-3.59431V404.31443a3.59824,3.59824,0,0,0-3.59431-3.59431Z" transform="translate(-312.76222 -102.17253)" fill="#e6e6e6"/><path d="M427.332,694.25529a3.59824,3.59824,0,0,0-3.59431,3.59431v64.69754a3.59824,3.59824,0,0,0,3.59431,3.59431H492.0295a3.59824,3.59824,0,0,0,3.5943-3.59431V697.8496a3.59824,3.59824,0,0,0-3.5943-3.59431Z" transform="translate(-312.76222 -102.17253)" fill="#6c63ff"/><path d="M518.38776,694.25529a3.59824,3.59824,0,0,0-3.59431,3.59431v64.69754a3.59824,3.59824,0,0,0,3.59431,3.59431H583.0853a3.59824,3.59824,0,0,0,3.59431-3.59431V697.8496a3.59824,3.59824,0,0,0-3.59431-3.59431Z" transform="translate(-312.76222 -102.17253)" fill="#6c63ff"/><path d="M609.44356,694.25529a3.59824,3.59824,0,0,0-3.59431,3.59431v64.69754a3.59824,3.59824,0,0,0,3.59431,3.59431h64.69755a3.59824,3.59824,0,0,0,3.59431-3.59431V697.8496a3.59824,3.59824,0,0,0-3.59431-3.59431Z" transform="translate(-312.76222 -102.17253)" fill="#6c63ff"/><path d="M427.63157,500.16265a3.59824,3.59824,0,0,0-3.59431,3.59431V568.4545a3.59824,3.59824,0,0,0,3.59431,3.59431h64.69754a3.59824,3.59824,0,0,0,3.59431-3.59431V503.757a3.59824,3.59824,0,0,0-3.59431-3.59431Z" transform="translate(-312.76222 -102.17253)" fill="#e6e6e6"/><path d="M791.99369,543.18967l3.27783,16.2322a13.68917,13.68917,0,0,0,16.54573,10.61753h0a13.68918,13.68918,0,0,0,8.02771-21.26169l-9.49021-13.34223-23.47652-64.38512,4.28591-55.14916c-13.47389-5.06015-27.19127-10.72721-34.62716-.73407l9.23826,60.34314Z" transform="translate(-312.76222 -102.17253)" fill="#ffb9b9"/><path d="M804.97037,554.24209a3.15188,3.15188,0,0,0-3.14844,3.14844v56.67193a3.15188,3.15188,0,0,0,3.14844,3.14844h56.67194a3.15188,3.15188,0,0,0,3.14844-3.14844V557.39053a3.15188,3.15188,0,0,0-3.14844-3.14844Z" transform="translate(-312.76222 -102.17253)" fill="#6c63ff"/><path d="M820.15757,333.5649c0-.3344-.00579-.66292-.01158-1.0088-.5316-21.0612-17.20391-37.559-37.957-37.559a37.43026,37.43026,0,0,0-26.8514,11.29793,38.7407,38.7407,0,0,0-11.12241,27.26987v37.76635h75.94241Z" transform="translate(-312.76222 -102.17253)" fill="#2f2e41"/><path d="M799.24823,789.80715h0a7.86828,7.86828,0,0,0-3.52094-7.71667l-22.58317-11.08261-17.02638,2.14937-4.02117,14.41551a7.67164,7.67164,0,0,0,6.71118,8.87672l31.77111.06945A7.86828,7.86828,0,0,0,799.24823,789.80715Z" transform="translate(-312.76222 -102.17253)" fill="#2f2e41"/><polygon points="408.248 457.583 410.867 474.313 411.103 475.846 421.168 540.15 424.278 560.025 425.232 566.122 427.878 585.358 440.211 674.941 461.655 670.08 462.679 566.805 462.855 549.076 463.021 534.088 463.17 520.905 463.766 467.884 408.248 457.583" fill="#2f2e41"/><circle cx="477.38384" cy="229.24343" r="28.75174" fill="#ffb9b9"/><path d="M758.27955,380.53351l32.58531,16.29266a80.12639,80.12639,0,0,1,10.0631-46.482l-28.27254-4.31276C772.27426,357.38468,766.52988,368.91721,758.27955,380.53351Z" transform="translate(-312.76222 -102.17253)" fill="#ffb9b9"/><path d="M742.4661,492.66529l57.50347,12.45908,4.792-37.37725c3.11916-15.98615,8.744-31.62161-1.10609-44.18246L802.211,410.64521a41.71662,41.71662,0,0,0-19.34855-30.74052l-17.395-10.87187C729.41129,388.53849,730.86081,436.71958,742.4661,492.66529Z" transform="translate(-312.76222 -102.17253)" fill="#e6e6e6"/><polygon points="424.278 560.025 425.232 566.122 427.878 585.358 462.679 566.805 462.855 549.076 463.021 534.088 424.278 560.025" opacity="0.2"/><path d="M721.01,559.75509l2.61919,16.73066.23642,1.53291A62.97781,62.97781,0,0,0,739.878,595.80924l36.05421,27.26839.59559-53.02139Z" transform="translate(-312.76222 -102.17253)" opacity="0.2"/><path d="M728.56942,660.863l6.70874,22.52219,86.67724-46.21681a23.20823,23.20823,0,0,0,5.81575-35.41417l-47.4486-53.98138,21.08461-47.44036L741.02851,484.519l-6.70874,14.37587q-21.02088,19.62237-18.91962,45.79761a61.64011,61.64011,0,0,0,24.48076,44.113l45.2336,34.201Z" transform="translate(-312.76222 -102.17253)" fill="#2f2e41"/><path d="M721.99327,703.84391h0a7.80064,7.80064,0,0,0,7.4098-3.9759L742.393,676.59447l-3.21306-16.70789-14.51861-3.05839a7.6057,7.6057,0,0,0-8.3539,7.2062l-1.50766,31.66081A7.80065,7.80065,0,0,0,721.99327,703.84391Z" transform="translate(-312.76222 -102.17253)" fill="#2f2e41"/><path d="M740.54932,549.68957l-.51725,16.55176a13.68918,13.68918,0,0,0,13.6825,14.11676h0a13.68918,13.68918,0,0,0,12.67281-18.8654l-6.19108-15.15749L752.05,478.28942l16.77185-52.71152c-11.96153-8.00455-24.02144-16.65558-33.5437-8.62552l-4.79195,60.85784Z" transform="translate(-312.76222 -102.17253)" fill="#ffb9b9"/><path d="M729.52782,424.61951c17.65513-8.4389,31.18784-4.134,41.21082,11.0215l6.49764-36.25a19.33592,19.33592,0,0,0-10.74241-20.88007h0a15.70869,15.70869,0,0,0-21.24691,8.17769Z" transform="translate(-312.76222 -102.17253)" fill="#e6e6e6"/><path d="M758.63425,311.29214l7.21658,22.96016,62.39322-1.10886a38.56952,38.56952,0,0,0-69.6098-21.8513Z" transform="translate(-312.76222 -102.17253)" fill="#2f2e41"/><polygon points="574.08 695.655 0 695.655 0 693.474 574.476 693.474 574.08 695.655" fill="#3f3d56"/></svg>