<svg id="b7479f35-b76c-414d-9259-8a40bcbac55e" data-name="Layer 1" xmlns="http://www.w3.org/2000/svg" width="963.15507" height="818.06726" viewBox="0 0 963.15507 818.06726"><title>prioritise</title><circle cx="871.42395" cy="478.58747" r="56.89068" fill="#f2f2f2"/><circle cx="611.83388" cy="478.58747" r="56.89068" fill="#f2f2f2"/><rect x="531.34411" y="23.04063" width="139.0661" height="165.19368" fill="#f2f2f2"/><path d="M824.516,230.328H648.63911V40.96637H824.516ZM650.894,228.07313H822.26106V43.22127H650.894Z" transform="translate(-118.42246 -40.96637)" fill="#3f3d56"/><path d="M824.516,602.857H648.63911V413.49478H824.516ZM650.894,600.6021H822.26106V415.74968H650.894Z" transform="translate(-118.42246 -40.96637)" fill="#3f3d56"/><path d="M567.45438,602.857H391.57754V413.49478H567.45438Zm-173.62194-2.2549h171.367V415.74968h-171.367Z" transform="translate(-118.42246 -40.96637)" fill="#3f3d56"/><path d="M1081.57754,602.857H905.70069V413.49478h175.87685Zm-173.62195-2.2549h171.367V415.74968h-171.367Z" transform="translate(-118.42246 -40.96637)" fill="#3f3d56"/><rect x="617.02762" y="188.23422" width="2.2549" height="185.42165" fill="#3f3d56"/><polygon points="876.345 373.656 874.09 373.656 874.09 270.273 362.221 270.273 362.221 373.656 359.966 373.656 359.966 268.018 876.345 268.018 876.345 373.656" fill="#3f3d56"/><rect x="531.3441" y="75.50233" width="115.46684" height="2.2549" fill="#3f3d56"/><rect x="531.3441" y="106.19564" width="115.46684" height="2.2549" fill="#3f3d56"/><rect x="531.3441" y="136.88895" width="115.46684" height="2.2549" fill="#3f3d56"/><rect x="27.39897" y="809.69336" width="457.54639" height="2" fill="#3f3d56"/><circle cx="361.09348" cy="467.20934" r="68.26881" fill="#6c63ff"/><polygon points="404.078 460.467 367.836 460.467 367.836 424.225 354.351 424.225 354.351 460.467 318.109 460.467 318.109 473.952 354.351 473.952 354.351 510.193 367.836 510.193 367.836 473.952 404.078 473.952 404.078 460.467" fill="#fff"/><path d="M736.57754,577.57193a69.396,69.396,0,1,1,69.396-69.39659A69.47515,69.47515,0,0,1,736.57754,577.57193Zm0-136.53718a67.14114,67.14114,0,1,0,67.14113,67.14059A67.21708,67.21708,0,0,0,736.57754,441.03475Z" transform="translate(-118.42246 -40.96637)" fill="#3f3d56"/><path d="M780.68906,516.04547H692.466V500.3052h88.223Zm-85.96814-2.2549h83.71323V502.5601H694.72092Z" transform="translate(-118.42246 -40.96637)" fill="#3f3d56"/><path d="M993.63966,577.57193a69.396,69.396,0,1,1,69.39549-69.39659A69.47562,69.47562,0,0,1,993.63966,577.57193Zm0-136.53718a67.14114,67.14114,0,1,0,67.14059,67.14059A67.21755,67.21755,0,0,0,993.63966,441.03475Z" transform="translate(-118.42246 -40.96637)" fill="#3f3d56"/><path d="M1011.05349,528.0863V516.04547H952.89838V500.3052h58.15511V488.15428l23.96054,20.69158Zm-55.9002-14.29573h58.15511v9.59214l18.18235-14.60071-18.18235-15.70173v9.47983H955.15329Z" transform="translate(-118.42246 -40.96637)" fill="#3f3d56"/><path d="M406.57754,445.91144s24,50,8,52-20-45-20-45Z" transform="translate(-118.42246 -40.96637)" fill="#ffb9b9"/><polygon points="197.155 724.945 213.155 753.299 184.155 771.445 177.23 737.965 197.155 724.945" fill="#ffb9b9"/><path d="M322.41,798.20446s8.78528-14.3034,11.96282-11.90905,16.28376,12.7684,16.28376,12.7684l17.07143,16.351s57.67689,6.0979,21.02767,26.30654S331.853,845.174,331.853,845.174s-51.33078,2.66945-50.50279-11.65187,17.38252-36.97834,17.38252-36.97834S319.59712,810.532,322.41,798.20446Z" transform="translate(-118.42246 -40.96637)" fill="#2f2e41"/><path d="M322.41,798.20446s8.78528-14.3034,11.96282-11.90905,16.28376,12.7684,16.28376,12.7684l17.07143,16.351s57.67689,6.0979,21.02767,26.30654S331.853,845.174,331.853,845.174s-51.33078,2.66945-50.50279-11.65187,17.38252-36.97834,17.38252-36.97834S319.59712,810.532,322.41,798.20446Z" transform="translate(-118.42246 -40.96637)" opacity="0.1"/><path d="M244.57754,445.41144l15,181.5s.5,108.5,16.5,129.5,16.5,31.5,16.5,31.5l33-17s-11-1-6-8,20,0,6-10-17-10.3271-13.5-14.66355a24.16973,24.16973,0,0,0,4.5-9.33645l-9-112,17-195Z" transform="translate(-118.42246 -40.96637)" fill="#2f2e41"/><path d="M244.57754,445.41144l15,181.5s.5,108.5,16.5,129.5,16.5,31.5,16.5,31.5l33-17s-11-1-6-8,20,0,6-10-17-10.3271-13.5-14.66355a24.16973,24.16973,0,0,0,4.5-9.33645l-9-112,17-195Z" transform="translate(-118.42246 -40.96637)" opacity="0.1"/><path d="M267.57754,787.91144" transform="translate(-118.42246 -40.96637)" fill="none" stroke="#3f3d56" stroke-miterlimit="10"/><polygon points="167.155 724.945 153.155 761.945 113.155 746.945 138.155 720.945 167.155 724.945" fill="#ffb9b9"/><path d="M265.715,787.00488s14.94647-9.34154,16.81478-5.60493,9.34154,19.61724,9.34154,19.61724l8.40738,23.35385s51.37847,32.69539,7.47323,34.56369-55.11508-23.35384-55.11508-23.35384S203.12673,814.09534,210.6,801.01719s33.62954-26.64207,33.62954-26.64207S257.30766,797.28057,265.715,787.00488Z" transform="translate(-118.42246 -40.96637)" fill="#2f2e41"/><path d="M371.57754,445.91144l8,167s-39,111-73,129c0,0,0,22-8,26a20.08371,20.08371,0,0,0-10,12l-44-11s11-11,7-16,13-16,13-16l44-107s7-3,9-13,6-10-4-12-10-12-10-12l-33-152Z" transform="translate(-118.42246 -40.96637)" fill="#2f2e41"/><circle cx="217.15507" cy="102.94507" r="40" fill="#ffb9b9"/><path d="M300.07754,146.41144s-3,51-7,56,42,4,42,4-3-43,0-47S300.07754,146.41144,300.07754,146.41144Z" transform="translate(-118.42246 -40.96637)" fill="#ffb9b9"/><path d="M286.57754,186.91144s38-4,52,8a102.89363,102.89363,0,0,0,14.32151,10.24547,29.37377,29.37377,0,0,1,14.25206,24.32024l7.42643,227.43429s-113-10-134,0c0,0-1-23-3-26-1.458-2.187-3.97893-89.406-5.23816-136.51706-.71062-26.58611,8.42653-52.66544,26.25528-72.40022,6.061-6.709,12.83288-12.33272,19.98288-15.08272C278.57754,206.91144,276.57754,187.91144,286.57754,186.91144Z" transform="translate(-118.42246 -40.96637)" fill="#575a89"/><path d="M347.57754,206.91144h0A29.53792,29.53792,0,0,1,369.311,231.36722l14.26655,101.54422,20,81s10,9,6,14,5,26,5,26l-25,8s-3-21-8-22c-4.39412-.87882-53.58348-132.28169-65.4401-164.11454-1.63484-4.38924-2.5599-6.88546-2.5599-6.88546S315.57754,201.91144,347.57754,206.91144Z" transform="translate(-118.42246 -40.96637)" fill="#575a89"/><path d="M314.07754,268.41144l60.5,163.66929S316.07754,321.41144,314.07754,268.41144Z" transform="translate(-118.42246 -40.96637)" opacity="0.1"/><path d="M314.68088,155.698c3.38281-.20184,6.68589.94138,10.04523,1.38738,12.01878,1.59566,24.522-7.12574,27.17572-18.956a14.54469,14.54469,0,0,1,1.38995-4.52877c1.84974-3.02,6.06244-3.59582,9.53519-2.90138s6.7646,2.31978,10.30124,2.50534c5.46064.28652,10.70312-3.07527,13.61328-7.7047s3.73416-10.32591,3.34129-15.77992l-2.61779,2.74748a13.29645,13.29645,0,0,1-1.18532-7.22646,8.38568,8.38568,0,0,0-7.943,2.03245c-2.30828.24566-.56616-4.28146-2.281-5.846-.71809-.65512-1.819-.53152-2.791-.52215-4.91058.04735-8.883-3.70861-12.75264-6.73218a54.19082,54.19082,0,0,0-22.88765-10.43995c-5.545-1.08153-11.4414-1.25533-16.70007.80949-4.31867,1.69572-7.93346,4.7842-11.27782,8-8.23294,7.91654-15.52333,17.21819-18.94841,28.11415a47.32783,47.32783,0,0,0-.22667,27.44357c1.38012,4.65808,5.53945,20.61076,11.62861,20.98227C309.75114,169.54946,305.15744,156.26619,314.68088,155.698Z" transform="translate(-118.42246 -40.96637)" fill="#2f2e41"/><path d="M189.985,851.33711l-1.07325-.40234c-.23584-.08887-23.70849-9.082-34.7041-29.47364-10.99609-20.39257-5.61182-44.94531-5.55615-45.19043l.25342-1.11816,1.07275.40234c.23584.08887,23.708,9.082,34.7041,29.47364,10.9961,20.39258,5.61182,44.94531,5.55615,45.19043Zm-34.01661-30.82519c9.29639,17.24121,27.84522,26.0791,32.54493,28.09668.89355-5.03711,3.6958-25.40625-5.59229-42.63086-9.28711-17.22266-27.84326-26.07422-32.54492-28.09668C149.482,782.9211,146.68078,803.28828,155.96837,820.51192Z" transform="translate(-118.42246 -40.96637)" fill="#3f3d56"/><path d="M162.61082,814.30809c19.76057,11.88861,27.371,35.50266,27.371,35.50266s-24.42779,4.33882-44.18836-7.5498-27.371-35.50266-27.371-35.50266S142.85025,802.41948,162.61082,814.30809Z" transform="translate(-118.42246 -40.96637)" fill="#6c63ff"/></svg>