<svg id="b9261c2c-831f-48b8-8d49-dea78c6da704" data-name="Layer 1" xmlns="http://www.w3.org/2000/svg" width="758.34998" height="760.08002" viewBox="0 0 758.34998 760.08002"><title>walking around</title><path d="M912.14508,420.26a350.04819,350.04819,0,0,1-338.73,350.12q-5.76.195-11.57.19a348.89755,348.89755,0,0,1-228.02-84.37q-13.245-11.355-25.29-23.97a351.8238,351.8238,0,0,1-46.57-60.8,348.13127,348.13127,0,0,1-41.14-100.75V339.84a348.288,348.288,0,0,1,42.41-102.81,54.9928,54.9928,0,0,0,70.48-82.61,350.67006,350.67006,0,0,1,372.59-53.38q5.31006,2.4,10.52,4.98C832.555,163.21,912.14508,282.44,912.14508,420.26Z" transform="translate(-220.82501 -69.95999)" fill="#f2f2f2"/><circle cx="74" cy="128.08002" r="33" fill="#f2f2f2"/><path d="M979.175,830.04l-645.35-1V498.2c.37-.05.78-.1,1.23-.16,5.7-.73,17.74-2.14,34.7-3.43,40.03-3.04,107.43-5.41,183.44,3.43q17.385,2.025,35.31,4.86,14.895,2.385,30.04,5.41,6.585,1.32,13.2,2.78,14.41506,3.165,28.9,7.01a576.56267,576.56267,0,0,1,94.89,33.9c12.78,5.95,25.36,12.44,37.64,19.55005A418.63488,418.63488,0,0,1,844.725,606.6C907.625,656.77,957.465,729.11,979.175,830.04Z" transform="translate(-220.82501 -69.95999)" fill="#2f2e41"/><path d="M866.175,830.04H220.825V499.2c.37-.05.78-.1,1.23-.16.84-.11,1.81-.23,2.92005-.36,6.42-.78,17.31-1.97,31.78-3.07,10.05-.76,21.83-1.48005,35.05-2,24.56-.95,54.07-1.18,86.6.38995,19.63.95,40.37,2.55,61.79,5.04q17.385,2.025,35.31,4.86,14.895,2.385,30.04,5.41,6.585,1.32,13.2,2.78,14.41506,3.165,28.9,7.01a597.23662,597.23662,0,0,1,71.76,23.84q11.67,4.74006,23.13,10.06,6.48,3.015,12.89,6.23,12.54006,6.27,24.75,13.32a423.35025,423.35025,0,0,1,36.65,23.74c.9.63,1.8,1.29,2.7,1.95q6.18,4.56,12.2,9.36c1.37,1.1,2.74,2.2,4.1,3.32q10.245,8.4,20,17.59a364.00446,364.00446,0,0,1,43.57,49.21C829.675,718.9,853.015,769,866.13507,829.86,866.14508,829.92,866.1651,829.98,866.175,830.04Z" transform="translate(-220.82501 -69.95999)" fill="#3f3d56"/><ellipse cx="478.82501" cy="607.04001" rx="12" ry="54" transform="translate(-492.333 723.5508) rotate(-65.69036)" opacity="0.1"/><ellipse cx="577.82501" cy="632.04001" rx="12" ry="54" transform="translate(-456.87145 828.48117) rotate(-65.69036)" opacity="0.1"/><line x1="70.97529" y1="434.96378" x2="70.97529" y2="360.5524" fill="none" stroke="#3f3d56" stroke-miterlimit="10" stroke-width="2"/><circle cx="70.97529" cy="360.5524" r="10.52282" fill="#3f3d56"/><path d="M291.8003,476.37366s-1.50326-32.33192-32.32009-28.57377Z" transform="translate(-220.82501 -69.95999)" fill="#3f3d56"/><path d="M459.85614,209.16818l7.5235.69073,25.60346,2.35779,41.3318,3.80094,4.11667-44.69283a32.08965,32.08965,0,0,0-29.03942-34.93175,42.62286,42.62286,0,0,0-43.14365,25.7064l-.0059.01465A42.67075,42.67075,0,0,0,463.001,174.957Z" transform="translate(-220.82501 -69.95999)" fill="#2f2e41"/><path d="M491.325,189.54s3,25,0,26-13,5-13,5l18,19,26,1,6-19-6-5-2-25Z" transform="translate(-220.82501 -69.95999)" fill="#ffb8b8"/><path d="M491.325,189.54s3,25,0,26-13,5-13,5l18,19,26,1,6-19-6-5-2-25Z" transform="translate(-220.82501 -69.95999)" opacity="0.1"/><path d="M452.325,235.54l-8,69-11,70s-9,34,8,33,5-35,5-35l16-59,7-60Z" transform="translate(-220.82501 -69.95999)" fill="#ffb8b8"/><path d="M559.325,236.54l7,71,41,39s27,14,22,23-33-15-33-15l-49-35-3-44,3-44Z" transform="translate(-220.82501 -69.95999)" fill="#ffb8b8"/><path d="M455.325,572.54s-14,24-7,27,27,12,27,12,31,6,30-3-13-9-13-9-16.93631-17-16.46816-23S455.325,572.54,455.325,572.54Z" transform="translate(-220.82501 -69.95999)" fill="#2f2e41"/><path d="M455.325,572.54s-14,24-7,27,27,12,27,12,31,6,30-3-13-9-13-9-16.93631-17-16.46816-23S455.325,572.54,455.325,572.54Z" transform="translate(-220.82501 -69.95999)" opacity="0.1"/><path d="M543.325,376.54l3,16-22,89-13,14-34,81h-25s16-63,28-82,32-116,32-116Z" transform="translate(-220.82501 -69.95999)" fill="#2f2e41"/><path d="M501.825,446.04l18,3,4.5,32.5-13,14-34,81h-25s16-63,28-82,32-116,32-116Z" transform="translate(-220.82501 -69.95999)" opacity="0.1"/><path d="M471.325,349.54s-16,30,10,67,37,74,37,74-2,67,19,94l8,18,24-14s-27-41-21-91c0,0,6-16,0-29s-22-75-22-75l20-1s6-38-4-43S471.325,349.54,471.325,349.54Z" transform="translate(-220.82501 -69.95999)" fill="#2f2e41"/><path d="M562.325,585.54s22,19,35,21,13,11-2,13c0,0-30,12-49,3v-25Z" transform="translate(-220.82501 -69.95999)" fill="#2f2e41"/><circle cx="287" cy="106.08002" r="24" fill="#ffb8b8"/><path d="M488.325,221.54l3.5-6.5s-47.5,16.5-42.5,24.5,19,20,19,20v16s15,46,0,72,82,18,79,0-7-37-3-46,11-19,5-43l15-16s-5-16-18-19-23.5-6.5-23.5-6.5,6.5,12.5-4.5,13.5S488.325,221.54,488.325,221.54Z" transform="translate(-220.82501 -69.95999)" fill="#6c63ff"/><path d="M467.37964,209.85891a18.37127,18.37127,0,0,0,32.29709-10.18378c-20.221-11.45429-13.62163-26.86687,4.04452-43.9222a18.35519,18.35519,0,0,0-9.79171-17.95643,42.76693,42.76693,0,0,0-27.681,24.303l-.0059.01465-3.15349,34.1906A18.28293,18.28293,0,0,0,467.37964,209.85891Z" transform="translate(-220.82501 -69.95999)" fill="#2f2e41"/><path d="M495.53444,163.93264l36.82237.84448.342-14.89566a32.14658,32.14658,0,0,0-11.25891-9.92038l-25.3424-.57666Z" transform="translate(-220.82501 -69.95999)" fill="#2f2e41"/><path d="M569.395,830.04H220.825V622.89c12.97,1.37,22.78-12.38,34.59-18.73,9.24-4.97,20.18-5.38,30.67-5.44,16.91-.09,34.13.5,50.14,5.94a73.63623,73.63623,0,0,1,14.71,6.85c9.92,6.04,18.24,14.52,22.66,25.16,2.67,6.42,4.59,14.29,10.98,17.04,3.56,1.54,7.63.99,11.47.42q20.23507-3.02993,40.47-6.05c9.98-1.5,20.95-2.8,29.47,2.61,13.14,8.34,13.15,27.25,10.94,42.66-2.22,15.41-4.24,33.59,7.16,44.19,13.82,12.86,36.05,4.82995,54.73,7.52a46.841,46.841,0,0,1,37.55,32.93C581.185,795.16,575.685,813.16,569.395,830.04Z" transform="translate(-220.82501 -69.95999)" fill="#2f2e41"/><line x1="85.09793" y1="759.59053" x2="88.32901" y2="552.26923" fill="none" stroke="#3f3d56" stroke-miterlimit="10" stroke-width="2"/><circle cx="88.32901" cy="552.26923" r="14.40135" fill="#3f3d56"/><path d="M308.24007,680.87237s-1.36755-44.27561-43.618-39.79011Z" transform="translate(-220.82501 -69.95999)" fill="#3f3d56"/><path d="M305.98463,825.59236s10.58286-84.93642-42.83726-89.88414" transform="translate(-220.82501 -69.95999)" fill="none" stroke="#3f3d56" stroke-miterlimit="10" stroke-width="2"/><circle cx="42.32235" cy="665.74823" r="14.40135" fill="#3f3d56"/><line x1="167.97529" y1="759.96378" x2="167.97529" y2="685.5524" fill="none" stroke="#3f3d56" stroke-miterlimit="10" stroke-width="2"/><circle cx="167.97529" cy="685.5524" r="10.52282" fill="#3f3d56"/><path d="M388.8003,801.37366s-1.50326-32.33192-32.32009-28.57377Z" transform="translate(-220.82501 -69.95999)" fill="#3f3d56"/><rect x="515" y="306.08002" width="20" height="305" fill="#3f3d56"/><rect x="395" y="296.08002" width="260" height="122" fill="#3f3d56"/><rect x="440" y="328.08002" width="166" height="4" fill="#6c63ff"/><rect x="440" y="340.08002" width="166" height="4" fill="#6c63ff"/><rect x="440" y="352.08002" width="166" height="4" fill="#6c63ff"/><circle cx="525" cy="296.08002" r="14" fill="#6c63ff"/><circle cx="586" cy="390.08002" r="13" fill="none" stroke="#6c63ff" stroke-miterlimit="10" stroke-width="2"/><circle cx="581" cy="385.08002" r="2" fill="#6c63ff"/><circle cx="591" cy="385.08002" r="2" fill="#6c63ff"/><path d="M800.825,463.04s5,7,12,0Z" transform="translate(-220.82501 -69.95999)" fill="#6c63ff"/><path d="M801.825,448.03788l10-13.99787,4.62434,17.267S811.825,445.03576,801.825,448.03788Z" transform="translate(-220.82501 -69.95999)" fill="#6c63ff"/></svg>